<svg xmlns="http://www.w3.org/2000/svg" viewBox="0 0 320 320" width="320" height="320" role="img" aria-label="Chef Marco Falcao - placeholder">
  <defs>
    <radialGradient id="bgM" cx="50%" cy="40%" r="70%">
      <stop offset="0%" stop-color="#1E1A15"/>
      <stop offset="100%" stop-color="#0C0A08"/>
    </radialGradient>
    <linearGradient id="silhouetteM" x1="0%" y1="0%" x2="0%" y2="100%">
      <stop offset="0%" stop-color="#3A2E24"/>
      <stop offset="100%" stop-color="#1F1812"/>
    </linearGradient>
  </defs>
  <rect width="320" height="320" fill="url(#bgM)"/>
  <g opacity="0.55">
    <path d="M 130 92 C 130 78, 140 70, 160 70 C 180 70, 190 78, 190 92 L 190 104 C 198 106, 204 114, 204 124 L 116 124 C 116 114, 122 106, 130 104 Z" fill="url(#silhouetteM)"/>
    <circle cx="160" cy="140" r="38" fill="url(#silhouetteM)"/>
    <path d="M 78 264 C 78 212, 108 184, 160 184 C 212 184, 242 212, 242 264 L 242 320 L 78 320 Z" fill="url(#silhouetteM)"/>
  </g>
  <text x="160" y="186" text-anchor="middle" font-family="Georgia, 'Playfair Display', serif" font-size="96" font-style="italic" font-weight="500" fill="#E8822A" opacity="0.88" letter-spacing="2">M</text>
  <circle cx="160" cy="160" r="150" fill="none" stroke="#E8822A" stroke-width="0.5" opacity="0.15"/>
</svg>
